# xmcd
#
# Track frame offsets:
#	150
#	11616
#	26520
#	37117
#	47926
#
# Disc length: 841 seconds
#
# Revision: 1
# Processed by: cddbd v1.5.2PL0 Copyright (c) Steve Scherf et al.
# Submitted via: audiograbber 1.83.01
#
DISCID=3a034705
DTITLE=Donny Moore - Private Eye
DYEAR=2001
DGENRE=
TTITLE0=Privat Eye
TTITLE1=Only In My Dreams
TTITLE2=Your Love Keeps Me This Way
TTITLE3=Brimstone And Fire
TTITLE4=Would I
EXTD=
EXTT0=
EXTT1=
EXTT2=
EXTT3=
EXTT4=
PLAYORDER=
